 <!-- designed by Sumit So -->
 <svg  xmlns="http://www.w3.org/2000/svg" xmlns:xlink="http://www.w3.org/1999/xlink"  height="400px" width="480px">
              <g>

              <!-- horizontal line -->
                <line x1="0" y1="40" x2="480" y2="40"   style="  stroke:rgba(216, 213, 213, 0.397);stroke-width:2" />
                <line x1="0" y1="80" x2="480" y2="80" style="stroke:rgba(216, 213, 213, 0.397);stroke-width:2" />
                <line x1="0" y1="120" x2="480" y2="120" style="stroke:rgba(216, 213, 213, 0.397);stroke-width:2" />
                <line x1="0" y1="160" x2="480" y2="160" style="stroke:rgba(216, 213, 213, 0.397);stroke-width:2" />
                <line x1="0" y1="200" x2="480" y2="200" style="stroke:rgba(216, 213, 213, 0.397);stroke-width:2" />
                <line x1="0" y1="240" x2="480" y2="240" style="stroke:rgba(216, 213, 213, 0.397);stroke-width:2" />
                <line x1="0" y1="280" x2="480" y2="280" style="stroke:rgba(216, 213, 213, 0.397);stroke-width:2" />
                <line x1="0" y1="320" x2="480" y2="320" style="stroke:rgba(216, 213, 213, 0.397);stroke-width:2" />
                <line x1="0" y1="360" x2="480" y2="360" style="stroke:rgba(216, 213, 213, 0.397);stroke-width:2" />
                <line x1="0" y1="400" x2="400" y2="400" style="stroke:rgba(216, 213, 213, 0.397);stroke-width:2" />

                <line x1="40" y1="0" x2="40" y2="480"   style="  stroke:rgba(216, 213, 213, 0.397);stroke-width:2" />
                <line x1="80" y1="0" x2="80" y2="480"   style="  stroke:rgba(216, 213, 213, 0.397);stroke-width:2" />
                <line x1="120" y1="0" x2="120" y2="480"   style="  stroke:rgba(216, 213, 213, 0.397);stroke-width:2" />
                <line x1="160" y1="0" x2="160" y2="480"   style="  stroke:rgba(216, 213, 213, 0.397);stroke-width:2" />
                <line x1="200" y1="0" x2="200" y2="480"   style="  stroke:rgba(216, 213, 213, 0.397);stroke-width:2" />
                <line x1="240" y1="0" x2="240" y2="480"   style="  stroke:rgba(216, 213, 213, 0.397);stroke-width:2" />
                <line x1="280" y1="0" x2="280" y2="480"   style="  stroke:rgba(216, 213, 213, 0.397);stroke-width:2" />
                <line x1="320" y1="0" x2="320" y2="480"   style="  stroke:rgba(216, 213, 213, 0.397);stroke-width:2" />
                <line x1="360" y1="0" x2="360" y2="480"   style="  stroke:rgba(216, 213, 213, 0.397);stroke-width:2" />
                <line x1="400" y1="0" x2="400" y2="480"   style="  stroke:rgba(216, 213, 213, 0.397);stroke-width:2" />
                <line x1="440" y1="0" x2="440" y2="480"   style="  stroke:rgba(216, 213, 213, 0.397);stroke-width:2" />
                <line x1="480" y1="0" x2="480" y2="480"   style="  stroke:rgba(216, 213, 213, 0.397);stroke-width:2" />
                <line x1="320" y1="0" x2="320" y2="480"   style="  stroke:rgba(216, 213, 213, 0.397);stroke-width:2" />
                
              </g>
                
</svg>