<?xml version="1.0" encoding="UTF-8" standalone="no" ?>
<!DOCTYPE svg PUBLIC "-//W3C//DTD SVG 1.1//EN" "http://www.w3.org/Graphics/SVG/1.1/DTD/svg11.dtd">
<svg xmlns="http://www.w3.org/2000/svg" xmlns:xlink="http://www.w3.org/1999/xlink" version="1.1" width="500" height="300" viewBox="-166.66666666666669 0 833.3333333333334 500" xml:space="preserve">
<desc>Created with Fabric.js 4.6.0</desc>
<defs>
</defs>
<g transform="matrix(1.86 0.68 -0.68 1.86 16.2 250)" id="e2ttvRwteSkd2lPKZPPsQ"  >
<path style="stroke: rgb(0,0,0); stroke-width: 1; stroke-dasharray: none; stroke-linecap: round; stroke-dashoffset: 0; stroke-linejoin: round; stroke-miterlimit: 10; fill: none; fill-rule: nonzero; opacity: 1;" vector-effect="non-scaling-stroke"  transform=" translate(-81.36, -223.64)" d="M 51.127214170692326 208.53562157809986 Q 51.127214170692326 208.53462157809986 51.127214170692326 207.32689210950082 Q 51.127214170692326 206.11916264090178 51.127214170692326 204.50885668276973 Q 51.127214170692326 202.8985507246377 53.14009661835739 200.0805152979066 Q 55.15297906602245 197.26247987117551 63.20450885668268 192.83413848631238 Q 71.2560386473429 188.40579710144928 80.11272141706915 186.3929146537842 Q 88.9694041867954 184.38003220611915 96.61835748792262 184.38003220611915 Q 104.26731078904984 184.38003220611915 111.51368760064403 186.3929146537842 Q 118.76006441223822 188.40579710144928 124.7987117552334 194.84702093397746 Q 130.83735909822857 201.28824476650564 133.25281803542663 212.56038647342996 Q 135.66827697262468 223.83252818035427 132.0450885668276 231.8840579710145 Q 128.4219001610305 239.93558776167475 120.37037037037027 245.5716586151369 Q 112.31884057971004 251.20772946859904 98.22866344605465 256.0386473429952 Q 84.13848631239927 260.8695652173913 55.958132045088476 262.07729468599035 Q 27.777777777777686 263.2850241545894 27.777777777777686 261.27214170692434 Q 27.777777777777686 259.2592592592593 27.777777777777686 255.63607085346217 L 27.777777777777686 252.01188244766504" stroke-linecap="round" />
</g>
<g transform="matrix(1.86 0.68 -0.68 1.86 37.09 252.92)" id="mwEcerwNikHvcYbxrHdDw"  >
<path style="stroke: rgb(0,0,0); stroke-width: 1; stroke-dasharray: none; stroke-linecap: round; stroke-dashoffset: 0; stroke-linejoin: round; stroke-miterlimit: 10; fill: none; fill-rule: nonzero; opacity: 1;" vector-effect="non-scaling-stroke"  transform=" translate(-91.79, -221.42)" d="M 87.35809822866335 195.6511739130435 Q 87.35909822866336 195.6521739130435 87.35909822866336 196.0547504025765 Q 87.35909822866336 196.4573268921095 88.56682769726238 200.88566827697264 Q 89.77455716586141 205.31400966183577 90.98228663446045 212.56038647342996 Q 92.19001610305949 219.80676328502415 94.20289855072454 233.49436392914654 L 96.2167809983896 247.18296457326895" stroke-linecap="round" />
</g>
<g transform="matrix(1.86 0.68 -0.68 1.86 136.81 281.59)" id="sb68N8MoB6smJwiM2DP69"  >
<path style="stroke: rgb(0,0,0); stroke-width: 1; stroke-dasharray: none; stroke-linecap: round; stroke-dashoffset: 0; stroke-linejoin: round; stroke-miterlimit: 10; fill: none; fill-rule: nonzero; opacity: 1;" vector-effect="non-scaling-stroke"  transform=" translate(-144.12, -217.79)" d="M 142.91365378421892 198.06663285024155 Q 142.91465378421893 198.06763285024155 142.91465378421893 198.47020933977456 Q 142.91465378421893 198.8727858293076 143.31723027375193 201.28824476650564 Q 143.71980676328494 203.7037037037037 143.71980676328494 207.32689210950082 Q 143.71980676328494 210.9500805152979 144.52495974235097 219.00161030595814 Q 145.330112721417 227.05314009661836 145.330112721417 232.28663446054753 L 145.330112721417 237.52112882447668" stroke-linecap="round" />
</g>
<g transform="matrix(1.86 0.68 -0.68 1.86 159.57 267.95)" id="SB_LCBxoeM4N_HFM3eVCZ"  >
<path style="stroke: rgb(0,0,0); stroke-width: 1; stroke-dasharray: none; stroke-linecap: round; stroke-dashoffset: 0; stroke-linejoin: round; stroke-miterlimit: 10; fill: none; fill-rule: nonzero; opacity: 1;" vector-effect="non-scaling-stroke"  transform=" translate(-152.58, -207.38)" d="M 142.10950080515286 199.6789388083736 Q 142.10950080515286 199.6779388083736 142.10950080515286 198.8727858293076 Q 142.10950080515286 198.06763285024155 142.10950080515286 196.85990338164254 Q 142.10950080515286 195.6521739130435 142.9146537842189 194.04186795491145 Q 143.71980676328494 192.4315619967794 144.52495974235097 190.41867954911436 Q 145.330112721417 188.40579710144928 146.53784219001602 187.19806763285027 Q 147.74557165861503 185.99033816425123 149.35587761674708 185.5877616747182 Q 150.96618357487912 185.1851851851852 152.17391304347817 185.5877616747182 Q 153.3816425120772 185.99033816425123 153.7842190016102 190.01610305958133 Q 154.18679549114322 194.04186795491142 157.0048309178743 202.49597423510465 Q 159.8228663446054 210.9500805152979 159.8228663446054 212.962962962963 Q 159.8228663446054 214.97584541062804 160.6280193236714 219.80676328502418 Q 161.4331723027374 224.6376811594203 162.23832528180344 227.05314009661836 L 163.04447826086948 229.46959903381642" stroke-linecap="round" />
</g>
<g transform="matrix(1.86 0.68 -0.68 1.86 154.56 286.36)" id="gG9u680evUAp9hncyxEax"  >
<path style="stroke: rgb(0,0,0); stroke-width: 1; stroke-dasharray: none; stroke-linecap: round; stroke-dashoffset: 0; stroke-linejoin: round; stroke-miterlimit: 10; fill: none; fill-rule: nonzero; opacity: 1;" vector-effect="non-scaling-stroke"  transform=" translate(-153.38, -216.99)" d="M 149.3548776167471 219.00261030595814 Q 149.3558776167471 219.00161030595814 150.16103059581312 219.00161030595814 Q 150.96618357487912 219.00161030595814 152.57648953301117 217.7938808373591 Q 154.18679549114322 216.58615136876006 154.58937198067622 216.58615136876006 Q 154.99194847020922 216.58615136876006 156.19967793880826 215.78099838969405 L 157.4084074074073 214.97484541062803" stroke-linecap="round" />
</g>
<g transform="matrix(1.86 0.68 -0.68 1.86 222.11 275.36)" id="382y_TbW4pDmSy9AcswZv"  >
<path style="stroke: rgb(0,0,0); stroke-width: 1; stroke-dasharray: none; stroke-linecap: round; stroke-dashoffset: 0; stroke-linejoin: round; stroke-miterlimit: 10; fill: none; fill-rule: nonzero; opacity: 1;" vector-effect="non-scaling-stroke"  transform=" translate(-183.57, -200.08)" d="M 179.14553784218992 182.76872624798713 Q 179.14653784218993 182.76972624798714 179.14653784218993 183.97745571658618 Q 179.14653784218993 185.1851851851852 179.95169082125594 188.40579710144928 Q 180.75684380032195 191.62640901771337 181.56199677938798 195.6521739130435 Q 182.36714975845402 199.6779388083736 184.38003220611907 205.31400966183577 Q 186.39291465378412 210.9500805152979 187.19806763285015 214.170692431562 L 188.0042206119162 217.3923043478261" stroke-linecap="round" />
</g>
<g transform="matrix(1.86 0.68 -0.68 1.86 235.46 238.7)" id="xsuSOXuFPJ7-dQ9MzbhlA"  >
<path style="stroke: rgb(0,0,0); stroke-width: 1; stroke-dasharray: none; stroke-linecap: round; stroke-dashoffset: 0; stroke-linejoin: round; stroke-miterlimit: 10; fill: none; fill-rule: nonzero; opacity: 1;" vector-effect="non-scaling-stroke"  transform=" translate(-183.57, -180.35)" d="M 163.04247826086947 187.60164412238325 Q 163.04347826086948 187.60064412238324 164.65378421900152 187.19806763285024 Q 166.26409017713357 186.79549114331724 169.88727858293066 185.1851851851852 Q 173.51046698872776 183.57487922705315 178.3413848631239 182.3671497584541 Q 183.17230273752003 181.15942028985506 187.60064412238316 179.54911433172302 Q 192.0289855072463 177.93880837359097 195.65217391304338 176.73107890499193 Q 199.27536231884048 175.52334943639292 201.69082125603856 174.3156199677939 L 204.10728019323665 173.10689049919486" stroke-linecap="round" />
</g>
<g transform="matrix(1.86 0.68 -0.68 1.86 298.84 278.71)" id="EJ0kJe18s64MoE1zQ27Va"  >
<path style="stroke: rgb(0,0,0); stroke-width: 1; stroke-dasharray: none; stroke-linecap: round; stroke-dashoffset: 0; stroke-linejoin: round; stroke-miterlimit: 10; fill: none; fill-rule: nonzero; opacity: 1;" vector-effect="non-scaling-stroke"  transform=" translate(-220.61, -188.41)" d="M 216.184574879227 208.53562157809986 Q 216.183574879227 208.53462157809986 215.78099838969396 207.72946859903382 Q 215.37842190016093 206.92431561996779 214.97584541062793 205.71658615136874 Q 214.57326892109492 204.50885668276973 214.57326892109492 203.7037037037037 Q 214.57326892109492 202.8985507246377 214.17069243156192 202.09339774557168 Q 213.7681159420289 201.28824476650564 213.7681159420289 200.08051529790663 Q 213.7681159420289 198.8727858293076 213.7681159420289 198.47020933977456 Q 213.7681159420289 198.06763285024155 213.7681159420289 196.85990338164254 Q 213.7681159420289 195.6521739130435 213.7681159420289 195.24959742351047 Q 213.7681159420289 194.84702093397746 212.96296296296288 194.44444444444446 Q 212.15780998389684 194.04186795491142 212.15780998389684 193.23671497584542 Q 212.15780998389684 192.4315619967794 212.15780998389684 191.62640901771337 Q 212.15780998389684 190.82125603864733 212.15780998389684 190.01610305958133 Q 212.15780998389684 189.21095008051532 212.15780998389684 188.00322061191628 Q 212.15780998389684 186.79549114331724 212.15780998389684 185.5877616747182 Q 212.15780998389684 184.38003220611915 212.15780998389684 183.97745571658615 Q 212.15780998389684 183.57487922705315 212.15780998389684 182.76972624798714 Q 212.15780998389684 181.9645732689211 212.15780998389684 181.5619967793881 Q 212.15780998389684 181.15942028985506 211.75523349436384 180.75684380032206 Q 211.35265700483083 180.35426731078906 211.35265700483083 179.54911433172305 Q 211.35265700483083 178.743961352657 211.35265700483083 178.341384863124 Q 211.35265700483083 177.93880837359097 211.35265700483083 177.53623188405797 Q 211.35265700483083 177.13365539452496 211.35265700483083 176.73107890499196 Q 211.35265700483083 176.32850241545896 211.35265700483083 175.52334943639292 Q 211.35265700483083 174.71819645732688 211.35265700483083 174.31561996779388 Q 211.35265700483083 173.91304347826087 211.35265700483083 173.51046698872787 Q 211.35265700483083 173.10789049919487 211.35265700483083 172.30273752012883 Q 211.35265700483083 171.4975845410628 211.35265700483083 171.0950080515298 Q 211.35265700483083 170.69243156199678 211.35265700483083 170.28985507246378 Q 211.35265700483083 169.88727858293078 211.35265700483083 169.08212560386474 Q 211.35265700483083 168.2769726247987 212.15780998389684 168.2769726247987 Q 212.96296296296285 168.2769726247987 213.36553945249588 168.2769726247987 Q 213.7681159420289 168.2769726247987 214.17069243156192 168.67954911433173 Q 214.57326892109492 169.08212560386474 215.37842190016096 169.48470209339774 Q 216.183574879227 169.88727858293078 216.58615136876 171.09500805152982 Q 216.988727858293 172.30273752012883 217.391304347826 172.70531400966183 Q 217.793880837359 173.10789049919487 218.59903381642502 173.10789049919487 Q 219.40418679549103 173.10789049919487 219.80676328502406 173.51046698872787 Q 220.2093397745571 173.91304347826087 220.2093397745571 174.71819645732688 Q 220.2093397745571 175.52334943639292 220.6119162640901 176.32850241545896 Q 221.0144927536231 177.13365539452496 221.81964573268914 177.93880837359097 Q 222.62479871175518 178.743961352657 223.02737520128818 179.54911433172305 Q 223.42995169082118 180.35426731078906 223.42995169082118 181.5619967793881 Q 223.42995169082118 182.76972624798714 223.8325281803542 183.97745571658618 Q 224.2351046698872 185.1851851851852 225.0402576489532 186.79549114331724 Q 225.8454106280192 188.40579710144928 225.8454106280192 189.6135265700483 Q 225.8454106280192 190.82125603864733 226.24798711755224 191.22383252818037 Q 226.65056360708527 191.62640901771337 226.65056360708527 192.4315619967794 Q 226.65056360708527 193.23671497584542 227.05314009661828 193.63929146537842 Q 227.45571658615128 194.04186795491142 227.45571658615128 194.84702093397746 Q 227.45571658615128 195.6521739130435 227.45571658615128 196.0547504025765 Q 227.45571658615128 196.4573268921095 228.26086956521732 196.8599033816425 Q 229.06602254428336 197.26247987117551 229.46859903381636 196.8599033816425 L 229.87217552334937 196.4563268921095" stroke-linecap="round" />
</g>
<g transform="matrix(1.86 0.68 -0.68 1.86 292.99 280.82)" id="YOyH9zK2Unt75dRbLJW5n"  >
<path style="stroke: rgb(0,0,0); stroke-width: 1; stroke-dasharray: none; stroke-linecap: round; stroke-dashoffset: 0; stroke-linejoin: round; stroke-miterlimit: 10; fill: none; fill-rule: nonzero; opacity: 1;" vector-effect="non-scaling-stroke"  transform=" translate(-218.2, -190.42)" d="M 212.96196296296284 192.4325619967794 Q 212.96296296296285 192.4315619967794 213.36553945249588 192.4315619967794 Q 213.7681159420289 192.4315619967794 214.97584541062795 191.62640901771337 Q 216.183574879227 190.82125603864733 217.391304347826 190.41867954911433 Q 218.59903381642502 190.01610305958133 219.40418679549106 190.01610305958133 Q 220.2093397745571 190.01610305958133 221.0144927536231 189.21095008051532 Q 221.8196457326891 188.40579710144928 222.62479871175515 188.40579710144928 L 223.4309516908212 188.40579710144928" stroke-linecap="round" />
</g>
<g transform="matrix(1.86 0.68 -0.68 1.86 350.16 270.42)" id="qeyrs_G0gTDyLb5_6kUht"  >
<path style="stroke: rgb(0,0,0); stroke-width: 1; stroke-dasharray: none; stroke-linecap: round; stroke-dashoffset: 0; stroke-linejoin: round; stroke-miterlimit: 10; fill: none; fill-rule: nonzero; opacity: 1;" vector-effect="non-scaling-stroke"  transform=" translate(-243.56, -175.59)" d="M 237.11755233494355 160.2244428341385 Q 237.11755233494355 160.2254428341385 237.11755233494355 159.42028985507247 Q 237.11755233494355 158.61513687600643 237.11755233494355 159.01771336553946 Q 237.11755233494355 159.42028985507247 237.52012882447656 163.04347826086956 Q 237.92270531400956 166.66666666666669 239.1304347826086 170.28985507246378 Q 240.33816425120764 173.91304347826087 241.14331723027368 177.53623188405797 Q 241.94847020933972 181.15942028985506 243.15619967793873 183.97745571658615 Q 244.36392914653774 186.79549114331724 245.57165861513678 188.40579710144928 Q 246.77938808373582 190.01610305958133 247.18196457326883 190.41867954911433 Q 247.58454106280183 190.82125603864733 248.79227053140087 191.62640901771337 L 250.00099999999992 192.4325619967794" stroke-linecap="round" />
</g>
<g transform="matrix(1.86 0.68 -0.68 1.86 370.42 231.05)" id="M_mSIUn6PkeiZ8U8wGPof"  >
<path style="stroke: rgb(0,0,0); stroke-width: 1; stroke-dasharray: none; stroke-linecap: round; stroke-dashoffset: 0; stroke-linejoin: round; stroke-miterlimit: 10; fill: none; fill-rule: nonzero; opacity: 1;" vector-effect="non-scaling-stroke"  transform=" translate(-246.38, -153.38)" d="M 235.50624637681153 158.61513687600643 Q 235.50724637681154 158.61513687600643 237.9227053140096 157.4074074074074 Q 240.33816425120764 156.19967793880838 241.14331723027368 156.19967793880838 Q 241.94847020933972 156.19967793880838 243.15619967793873 155.39452495974234 Q 244.36392914653774 154.58937198067633 246.37681159420282 153.3816425120773 Q 248.3896940418679 152.17391304347825 250.40257648953295 151.36876006441224 Q 252.415458937198 150.56360708534623 254.02576489533004 150.1610305958132 Q 255.6360708534621 149.7584541062802 256.4412238325281 148.95330112721416 L 257.2473768115941 148.14714814814815" stroke-linecap="round" />
</g>
<g transform="matrix(1.86 0.68 -0.68 1.86 369.12 269.55)" id="wPoXACq7S21pDNiqTGwU5"  >
<path style="stroke: rgb(0,0,0); stroke-width: 1; stroke-dasharray: none; stroke-linecap: round; stroke-dashoffset: 0; stroke-linejoin: round; stroke-miterlimit: 10; fill: none; fill-rule: nonzero; opacity: 1;" vector-effect="non-scaling-stroke"  transform=" translate(-252.42, -171.9)" d="M 245.9732351046698 175.52334943639292 Q 245.97423510466982 175.52334943639292 245.97423510466982 175.12077294685992 Q 245.97423510466982 174.71819645732688 246.37681159420282 174.71819645732688 Q 246.77938808373582 174.71819645732688 247.98711755233487 174.31561996779388 Q 249.1948470209339 173.91304347826087 250.40257648953292 173.51046698872787 Q 251.61030595813193 173.10789049919487 252.41545893719797 172.30273752012883 Q 253.220611916264 171.4975845410628 254.42834138486305 171.0950080515298 Q 255.6360708534621 170.69243156199678 257.24637681159413 169.48470209339774 L 258.8576827697261 168.2759726247987" stroke-linecap="round" />
</g>
<g transform="matrix(1.86 0.68 -0.68 1.86 432 271.36)" id="7VlpnciUxpz2pSTf_KDo9"  >
<path style="stroke: rgb(0,0,0); stroke-width: 1; stroke-dasharray: none; stroke-linecap: round; stroke-dashoffset: 0; stroke-linejoin: round; stroke-miterlimit: 10; fill: none; fill-rule: nonzero; opacity: 1;" vector-effect="non-scaling-stroke"  transform=" translate(-282.61, -161.89)" d="M 268.5175185185185 144.12138325281805 Q 268.5185185185185 144.12238325281805 268.5185185185185 143.71980676328502 Q 268.5185185185185 143.31723027375202 268.92109500805145 143.71980676328502 Q 269.3236714975844 144.12238325281805 270.12882447665044 145.7326892109501 Q 270.93397745571644 147.34299516908214 271.7391304347825 149.7584541062802 Q 272.5442834138486 152.17391304347825 273.7520128824476 157.4074074074074 Q 274.95974235104666 162.64090177133656 275.76489533011267 165.0563607085346 Q 276.5700483091787 167.4718196457327 276.97262479871165 169.08212560386474 Q 277.3752012882446 170.69243156199678 277.77777777777766 171.4975845410628 Q 278.1803542673107 172.30273752012883 278.9855072463767 173.10789049919487 Q 279.7906602254427 173.91304347826087 279.7906602254427 174.31561996779388 Q 279.7906602254427 174.71819645732688 279.7906602254427 175.52334943639292 Q 279.7906602254427 176.32850241545896 280.19323671497574 177.536231884058 Q 280.5958132045088 178.743961352657 280.5958132045088 179.14653784219 Q 280.5958132045088 179.54911433172305 280.5958132045088 179.95169082125605 Q 280.5958132045088 180.35426731078906 280.9983896940418 180.35426731078906 Q 281.40096618357484 180.35426731078906 282.20611916264085 180.35426731078906 Q 283.01127214170685 180.35426731078906 283.81642512077286 180.35426731078906 Q 284.62157809983887 180.35426731078906 286.6344605475039 179.54911433172305 Q 288.64734299516897 178.743961352657 289.855072463768 178.341384863124 Q 291.06280193236705 177.93880837359097 292.6731078904991 177.53623188405797 Q 294.2834138486312 177.13365539452496 295.4911433172302 176.32850241545896 Q 296.69887278582917 175.52334943639292 296.69887278582917 175.12077294685992 Q 296.69887278582917 174.71819645732688 296.2962962962962 174.71819645732688 Q 295.8937198067632 174.71819645732688 295.4911433172302 174.31561996779388 L 295.0875668276972 173.91204347826087" stroke-linecap="round" />
</g>
<g transform="matrix(1.86 0.68 -0.68 1.86 486.25 268.97)" id="jNUBeUlUS7fTAyRsZWXho"  >
<path style="stroke: rgb(0,0,0); stroke-width: 1; stroke-dasharray: none; stroke-linecap: round; stroke-dashoffset: 0; stroke-linejoin: round; stroke-miterlimit: 10; fill: none; fill-rule: nonzero; opacity: 1;" vector-effect="non-scaling-stroke"  transform=" translate(-307.97, -151.37)" d="M 301.5307906602253 136.0708534621578 Q 301.52979066022533 136.0708534621578 301.52979066022533 135.6682769726248 Q 301.52979066022533 135.2657004830918 300.7246376811593 135.2657004830918 Q 299.9194847020933 135.2657004830918 299.5169082125603 135.2657004830918 Q 299.11433172302725 135.2657004830918 298.30917874396124 136.87600644122384 Q 297.50402576489523 138.48631239935588 297.50402576489523 140.49919484702093 Q 297.50402576489523 142.51207729468598 297.1014492753622 145.73268921095007 Q 296.69887278582917 148.95330112721416 296.69887278582917 152.17391304347825 Q 296.69887278582917 155.39452495974234 297.9066022544282 159.01771336553946 Q 299.11433172302725 162.64090177133656 300.3220611916263 164.2512077294686 Q 301.52979066022533 165.86151368760065 302.73752012882437 167.06924315619966 Q 303.9452495974234 168.2769726247987 305.95813204508846 169.08212560386474 Q 307.9710144927535 169.88727858293078 309.5813204508856 169.88727858293078 Q 311.19162640901766 169.88727858293078 313.6070853462157 169.48470209339774 Q 316.0225442834137 169.08212560386474 317.23027375201275 167.87439613526573 Q 318.4380032206118 166.66666666666669 318.8405797101448 165.05636070853464 Q 319.24315619967786 163.4460547504026 319.24315619967786 161.83574879227055 Q 319.24315619967786 160.2254428341385 319.24315619967786 156.19967793880838 Q 319.24315619967786 152.17391304347825 319.24315619967786 148.95330112721416 Q 319.24315619967786 145.73268921095007 318.8405797101448 143.31723027375202 Q 318.4380032206118 140.90177133655396 316.8276972624798 138.48631239935588 Q 315.21739130434776 136.0708534621578 313.2045088566827 134.46054750402575 Q 311.19162640901766 132.8502415458937 309.9838969404186 132.8502415458937 Q 308.7761674718196 132.8502415458937 307.1658615136875 133.25281803542674 Q 305.55555555555543 133.65539452495975 305.15297906602245 134.86312399355876 Q 304.7504025764895 136.0708534621578 303.54267310789044 138.88888888888889 L 302.3339436392914 141.70792431561998" stroke-linecap="round" />
</g>
<g transform="matrix(1.86 0.68 -0.68 1.86 566.05 261.58)" id="kjq9wn3NGAWR_c-6pwZDR"  >
<path style="stroke: rgb(0,0,0); stroke-width: 1; stroke-dasharray: none; stroke-linecap: round; stroke-dashoffset: 0; stroke-linejoin: round; stroke-miterlimit: 10; fill: none; fill-rule: nonzero; opacity: 1;" vector-effect="non-scaling-stroke"  transform=" translate(-344.6, -134.06)" d="M 327.2936859903381 125.60286473429952 Q 327.29468599033805 125.60386473429952 327.29468599033805 128.0193236714976 Q 327.29468599033805 130.43478260869566 328.09983896940406 134.46054750402578 Q 328.90499194847007 138.48631239935588 329.71014492753613 141.30434782608697 Q 330.5152979066022 144.12238325281805 331.3204508856682 145.7326892109501 Q 332.1256038647342 147.34299516908214 332.9307568438002 148.55072463768118 Q 333.73590982286623 149.7584541062802 334.54106280193224 150.56360708534623 Q 335.34621578099825 151.36876006441224 336.1513687600643 151.36876006441224 Q 336.9565217391304 151.36876006441224 338.1642512077294 151.36876006441224 Q 339.37198067632846 151.36876006441224 339.77455716586144 151.36876006441224 Q 340.1771336553944 151.36876006441224 341.38486312399345 150.96618357487924 Q 342.5925925925925 150.56360708534623 342.9951690821255 148.55072463768118 Q 343.39774557165856 146.5378421900161 344.20289855072457 145.73268921095007 Q 345.0080515297906 144.92753623188406 345.0080515297906 143.71980676328502 Q 345.0080515297906 142.51207729468598 345.0080515297906 140.49919484702093 Q 345.0080515297906 138.48631239935588 345.0080515297906 137.68115942028987 Q 345.0080515297906 136.87600644122384 345.0080515297906 136.47342995169083 Q 345.0080515297906 136.0708534621578 345.0080515297906 136.47342995169083 Q 345.0080515297906 136.87600644122384 345.4106280193236 138.8888888888889 Q 345.81320450885664 140.90177133655396 347.0209339774556 143.31723027375202 Q 348.2286634460546 145.73268921095007 349.43639291465365 147.74557165861512 Q 350.6441223832527 149.7584541062802 351.85185185185173 150.1610305958132 Q 353.0595813204508 150.56360708534623 353.8647342995168 150.56360708534623 Q 354.6698872785828 150.56360708534623 355.87761674718183 150.56360708534623 Q 357.0853462157809 150.56360708534623 358.2930756843799 149.3558776167472 Q 359.50080515297896 148.14814814814815 360.708534621578 144.52495974235106 Q 361.91626409017704 140.90177133655396 361.91626409017704 137.27858293075684 Q 361.91626409017704 133.65539452495975 361.91626409017704 130.43478260869566 Q 361.91626409017704 127.21417069243157 361.513687600644 123.99355877616748 Q 361.111111111111 120.77294685990339 358.69565217391295 118.76006441223832 L 356.27919323671495 116.74618196457325" stroke-linecap="round" />
</g>
</svg>