 <!-- designed by Sumit So -->
 <svg  xmlns="http://www.w3.org/2000/svg" xmlns:xlink="http://www.w3.org/1999/xlink"  height="400px" width="480px">
              <g>

              <!-- horizontal line -->
                <line x1="0" y1="10" x2="480" y2="10" style="stroke:rgba(91, 140, 99, 0.09);stroke-width:1.5" />
                <line x1="0" y1="40" x2="480" y2="40" style="stroke:rgba(91, 140, 99, 0.09);stroke-width:1.5" />
                <line x1="0" y1="70" x2="480" y2="70" style="stroke:rgba(91, 140, 99, 0.09);stroke-width:1.5" />
                <line x1="0" y1="100" x2="480" y2="100" style="stroke:rgba(91, 140, 99, 0.09);stroke-width:1.5" />
                <line x1="0" y1="130" x2="480" y2="130" style="stroke:rgba(91, 140, 99, 0.09);stroke-width:1.5" />
                <line x1="0" y1="160" x2="480" y2="160" style="stroke:rgba(91, 140, 99, 0.09);stroke-width:1.5" />
                <line x1="0" y1="190" x2="480" y2="190" style="stroke:rgba(91, 140, 99, 0.09);stroke-width:1.5" />
                <line x1="0" y1="220" x2="480" y2="220" style="stroke:rgba(91, 140, 99, 0.09);stroke-width:1.5" />
                <line x1="0" y1="250" x2="480" y2="250" style="stroke:rgba(91, 140, 99, 0.09);stroke-width:1.5" />
                <line x1="0" y1="280" x2="480" y2="280" style="stroke:rgba(91, 140, 99, 0.09);stroke-width:1.5" />
               
                <line x1="0" y1="310" x2="480" y2="310" style="stroke:rgba(91, 140, 99, 0.09);stroke-width:1.5" />
                <line x1="0" y1="390" x2="480" y2="390" style="stroke:rgba(91, 140, 99, 0.09);stroke-width:1.5" />
                <line x1="0" y1="370" x2="480" y2="370" style="stroke:rgba(91, 140, 99, 0.09);stroke-width:1.5" />
                <line x1="0" y1="400" x2="400" y2="400" style="stroke:rgba(91, 140, 99, 0.09);stroke-width:1.5" />
                 <line x1="0" y1="430" x2="480" y2="430" style="stroke:rgba(91, 140, 99, 0.09);stroke-width:1.5" />
                <line x1="0" y1="460" x2="480" y2="460" style="stroke:rgba(91, 140, 99, 0.09);stroke-width:1.5" />
                <line x1="0" y1="490" x2="490" y2="460" style="stroke:rgba(91, 140, 99, 0.09);stroke-width:1.5" />
               
                <line x1="10" y1="0" x2="10" y2="480"   style="  stroke:rgba(91, 140, 99, 0.09);stroke-width:1.5" />
                <line x1="40" y1="0" x2="40" y2="480"   style="  stroke:rgba(91, 140, 99, 0.09);stroke-width:1.5" />
                <line x1="70" y1="0" x2="70" y2="480"   style="  stroke:rgba(91, 140, 99, 0.09);stroke-width:1.5" />
                <line x1="100" y1="0" x2="100" y2="480"   style="  stroke:rgba(91, 140, 99, 0.09);stroke-width:1.5" />
                <line x1="130" y1="0" x2="130" y2="480"   style="  stroke:rgba(91, 140, 99, 0.09);stroke-width:1.5" />
                <line x1="160" y1="0" x2="160" y2="480"   style="  stroke:rgba(91, 140, 99, 0.09);stroke-width:1.5" />
                <line x1="190" y1="0" x2="190" y2="480"   style="  stroke:rgba(91, 140, 99, 0.09);stroke-width:1.5" />
                <line x1="220" y1="0" x2="220" y2="480"   style="  stroke:rgba(91, 140, 99, 0.09);stroke-width:1.5" />
                <line x1="250" y1="0" x2="250" y2="480"   style="  stroke:rgba(91, 140, 99, 0.09);stroke-width:1.5" />
                <line x1="280" y1="0" x2="280" y2="480"   style="  stroke:rgba(91, 140, 99, 0.09);stroke-width:1.5" />
                <line x1="310" y1="0" x2="310" y2="480"   style="  stroke:rgba(91, 140, 99, 0.09);stroke-width:1.5" />
                <line x1="340" y1="0" x2="340" y2="480"   style="  stroke:rgba(91, 140, 99, 0.09);stroke-width:1.5" />
                <line x1="370" y1="0" x2="370" y2="480"   style="  stroke:rgba(91, 140, 99, 0.09);stroke-width:1.5" />
                <line x1="400" y1="0" x2="400" y2="480"   style="  stroke:rgba(91, 140, 99, 0.09);stroke-width:1.5" />
                 <line x1="430" y1="0" x2="430" y2="480"   style="  stroke:rgba(91, 140, 99, 0.09);stroke-width:1.5" />
                <line x1="460" y1="0" x2="460" y2="480"   style="  stroke:rgba(91, 140, 99, 0.09);stroke-width:1.5" />
                <line x1="490" y1="0" x2="490" y2="480"   style="  stroke:rgba(91, 140, 99, 0.09);stroke-width:1.5" />
                
              </g>
                
</svg>