<svg id="e9rXGSPMoFC1" xmlns="http://www.w3.org/2000/svg" xmlns:xlink="http://www.w3.org/1999/xlink" viewBox="0 0 480 480" shape-rendering="geometricPrecision" text-rendering="geometricPrecision"><rect width="105.760552" height="57.340059" rx="0" ry="0" transform="matrix(1.120481 0 0 1 161.019093 289.280594)" fill="none" stroke="#f8fbff"/><rect width="105.760552" height="57.340059" rx="0" ry="0" transform="matrix(1.120481 0 0 1 320.414555 289.280594)" fill="none" stroke="#f8fbff"/><rect width="105.760552" height="57.340059" rx="0" ry="0" transform="matrix(1.120481 0 0 1 320.414555 289.280594)" fill="none" stroke="#f8fbff"/><rect width="48" height="48" rx="0" ry="0" transform="matrix(1.177909 0 0 1 372.872107 293.950624)" fill="#dcdcdc" stroke-width="0"/><rect width="105.760552" height="57.340059" rx="0" ry="0" transform="matrix(1.120481 0 0 1 41.082755 133.379347)" fill="none" stroke="#f8fbff"/><rect width="105.760552" height="57.340059" rx="0" ry="0" transform="matrix(1.120481 0 0 1 41.082755 133.379347)" fill="none" stroke="#f8fbff"/><rect width="105.760552" height="57.340059" rx="0" ry="0" transform="matrix(1.120481 0 0 1 161.019093 289.280594)" fill="none" stroke="#f8fbff"/><rect width="48" height="48" rx="0" ry="0" transform="matrix(1.177909 0 0 1 92.639808 138.049376)" fill="#dcdcdc" stroke-width="0"/><rect width="48" height="48" rx="0" ry="0" transform="matrix(1.177909 0 0 1 213.476645 293.950624)" fill="#dcdcdc" stroke-width="0"/><path d="M180.748606,112.768782h123.288436v74.247253l-123.288436-.000001v31.570826l-7.198178-11.093595l15.541942-.96466-8.343764,12.058255" transform="translate(16.377513 49.280595)" fill="none" stroke="#8699bf" stroke-width="0.96"/><path d="M269.594582,268.67003q0,0,25.610429,0" transform="translate(16.377514 49.280594)" fill="none" stroke="#8699bf" stroke-width="0.96"/></svg>